<svg xmlns="http://www.w3.org/2000/svg" viewBox="0 0 270.53 39.89"><path stroke="none" fill="white" d="M3.46 26.5c2.3 2.3 6.53 3.94 9.65 3.94 2.16 0 3.79-.77 3.79-2.83s-3.17-3.89-8.5-4.99l-.1-5.23c4.13 0 8.54-1.2 8.54-4.03 0-1.68-1.82-2.26-4.27-2.26-3.79 0-9.07 1.49-10.32 2.21L2.11 1.02C4.37.68 6.57.64 8.83.64c12.48 0 21.65 4.32 21.65 10.71 0 4.51-4.22 7.34-10.18 8.88 4.46 2.3 7.44 6 7.44 9.7 0 6.43-8.69 8.93-14.69 8.93-4.94 0-8.79-.58-13.06-2.74l3.46-9.6Zm51.6 11.62-2.26-8.78-9.26.34-1.44 7.63-10.99.58 9.83-36.26L53.33.62l12.91 37.01-11.19.48Zm-7.49-26.45L44.83 23h6.29l-3.55-11.33ZM78.1 39.32l-9.65-1.1.96-37.06 23.23.96-.29 10.08-14.02-.72-.24 27.84Zm20.11-.24L95.47 2.79C99.12 1.4 103.25.73 107.14.73c12.82 0 19.63 5.09 19.63 14.16 0 6.53-6.24 13.06-18.96 13.06l1.54 10.37-11.14.77Zm8.35-19.63c4.13-.77 8.35-2.74 8.35-6.05 0-3.07-2.35-4.27-5.23-4.27-1.49 0-2.98.29-4.46.91l1.34 9.41Zm37.39 20.44-11.76-5.62 10.37-11.47-15.07-17.19 8.88-5.47 12.62 14.35 9.12-14.5 10.61 5.33-24.77 34.56Zm29.23-13.39c2.3 2.3 6.53 3.94 9.65 3.94 2.16 0 3.79-.77 3.79-2.83s-3.17-3.89-8.5-4.99l-.1-5.23c4.13 0 8.54-1.2 8.54-4.03 0-1.68-1.82-2.26-4.27-2.26-3.79 0-9.07 1.49-10.32 2.21l-.14-12.29c2.26-.34 4.46-.38 6.72-.38 12.48 0 21.65 4.32 21.65 10.71 0 4.51-4.22 7.34-10.18 8.88 4.46 2.3 7.44 6 7.44 9.7 0 6.43-8.69 8.93-14.69 8.93-4.94 0-8.79-.58-13.06-2.74l3.46-9.6Zm52.95 12.53L213.98 26.5l-1.34 12.77-7.82-1.73-1.1-35.14 11.86.29-1.34 14.26 9.79-13.63 10.99.58-12.77 16.47 12.43 12.29-8.54 6.38Zm33.21-.91-2.26-8.78-9.26.34-1.44 7.63-10.99.58 9.84-36.26L257.62.62l12.91 37.01-11.19.48Zm-7.49-26.45L249.11 23h6.29l-3.55-11.33Z"/></svg>